<svg width="1792.0000000000002" height="1792.0000000000002" xmlns="http://www.w3.org/2000/svg">

 <g>
  <title>background</title>
  <rect fill="none" id="canvas_background" height="402" width="582" y="-1" x="-1"/>
 </g>
 <g>
  <title>Layer 1</title>
  <path fill="#ffffff" id="svg_1" d="m1664,960q-152,-236 -381,-353q61,104 61,225q0,185 -131.5,316.5t-316.5,131.5t-316.5,-131.5t-131.5,-316.5q0,-121 61,-225q-229,117 -381,353q133,205 333.5,326.5t434.5,121.5t434.5,-121.5t333.5,-326.5zm-720,-384q0,-20 -14,-34t-34,-14q-125,0 -214.5,89.5t-89.5,214.5q0,20 14,34t34,14t34,-14t14,-34q0,-86 61,-147t147,-61q20,0 34,-14t14,-34zm848,384q0,34 -20,69q-140,230 -376.5,368.5t-499.5,138.5t-499.5,-139t-376.5,-368q-20,-35 -20,-69t20,-69q140,-229 376.5,-368t499.5,-139t499.5,139t376.5,368q20,35 20,69z"/>
 </g>
</svg>