<svg width="512" height="512" xmlns="http://www.w3.org/2000/svg">

 <g>
  <title>background</title>
  <rect fill="none" id="canvas_background" height="514" width="514" y="-1" x="-1"/>
 </g>
 <g>
  <title>Layer 1</title>
  <path fill="#ffffff" id="svg_1" d="m417.4,224l-129.4,0l0,-129.4c0,-16.9 -14.3,-30.6 -32,-30.6c-17.7,0 -32,13.7 -32,30.6l0,129.4l-129.4,0c-16.9,0 -30.6,14.3 -30.6,32c0,17.7 13.7,32 30.6,32l129.4,0l0,129.4c0,16.9 14.3,30.6 32,30.6c17.7,0 32,-13.7 32,-30.6l0,-129.4l129.4,0c16.9,0 30.6,-14.3 30.6,-32c0,-17.7 -13.7,-32 -30.6,-32z"/>
  <path d="m62.863922,163.633133c0.946747,-0.946747 2.174416,-4.113831 5.680473,-10.4142c5.619507,-10.098206 13.517677,-19.630081 18.934906,-25.562126c4.986275,-5.460136 8.603493,-9.272362 13.25444,-11.360947c3.862396,-1.734474 8.627968,-2.684082 14.20118,-6.627213c3.864334,-2.734077 6.627213,-4.733734 10.4142,-8.520714c2.84024,-2.840233 5.888962,-6.433029 8.520706,-9.467453c3.101547,-3.576111 4.733734,-5.680473 7.573975,-6.62722c2.840225,-0.946747 3.931107,-1.168877 5.680466,-1.893486c1.236984,-0.512375 1.893494,-0.946747 1.893494,-0.946747c0.946747,0 0.946747,0 0.946747,-0.946747l0,0" id="svg_3" stroke-opacity="null" stroke-width="null" stroke="null" fill="none"/>
 </g>
</svg>