<?xml version="1.0" encoding="iso-8859-1"?>
<!-- Generator: Adobe Illustrator 19.1.1, SVG Export Plug-In . SVG Version: 6.00 Build 0)  -->
<svg version="1.1" id="Layer_1" xmlns="http://www.w3.org/2000/svg" xmlns:xlink="http://www.w3.org/1999/xlink" x="0px" y="0px"
	 viewBox="0 0 40 40" style="enable-background:new 0 0 40 40;" xml:space="preserve">
<g>
	<path style="fill:#4E7AB5;" d="M20,38.5C9.799,38.5,1.5,30.201,1.5,20S9.799,1.5,20,1.5S38.5,9.799,38.5,20S30.201,38.5,20,38.5z"
		/>
	<g>
		<path style="fill:#4E7AB5;" d="M20,2c9.925,0,18,8.075,18,18s-8.075,18-18,18S2,29.925,2,20S10.075,2,20,2 M20,1
			C9.507,1,1,9.507,1,20s8.507,19,19,19s19-8.507,19-19S30.493,1,20,1L20,1z"/>
	</g>
</g>
<g>
	<path style="fill:#8BB7F0;" d="M20,36.5c-9.098,0-16.5-7.402-16.5-16.5S10.902,3.5,20,3.5S36.5,10.902,36.5,20S29.098,36.5,20,36.5
		z"/>
	<path style="fill:#C2E8FF;" d="M20,4c8.822,0,16,7.178,16,16s-7.178,16-16,16c-8.822,0-16-7.178-16-16S11.178,4,20,4 M20,3
		C10.611,3,3,10.611,3,20s7.611,17,17,17c9.389,0,17-7.611,17-17S29.389,3,20,3L20,3z"/>
</g>
<polygon style="fill:#C2E8FF;" points="36,22 31,20 36,17.929 "/>
<polygon style="fill:#C2E8FF;" points="4,22 9,20 4,17.929 "/>
<polygon style="fill:#C2E8FF;" points="17.929,4 20,9 22,4 "/>
<polygon style="fill:#C2E8FF;" points="17.929,36 20,31 22,36 "/>
<g>
	<polygon style="fill:#F75252;" points="17.369,17.369 28.77,11.23 22.631,22.631 11.23,28.77 	"/>
	<path style="fill:#AB3434;" d="M27.539,12.461l-5.277,9.801l-9.801,5.277l5.277-9.801L27.539,12.461 M30,10l-13,7l-7,13l13-7L30,10
		L30,10z"/>
</g>
<g>
	<polygon style="fill:#839CB2;" points="17.122,17.829 22.171,22.878 11.23,28.77 	"/>
	<g>
		<path style="fill:#66798F;" d="M17.243,18.657l4.099,4.099l-8.882,4.782L17.243,18.657 M17,17l-7,13l13-7L17,17L17,17z"/>
	</g>
</g>
<g>
	<circle style="fill:#FFFFFF;" cx="20" cy="20" r="0.5"/>
	<path style="fill:#FFFFFF;" d="M20,19c-0.552,0-1,0.448-1,1s0.448,1,1,1s1-0.448,1-1S20.552,19,20,19L20,19z"/>
</g>
</svg>
