<?xml version="1.0" encoding="iso-8859-1"?>
<!-- Generator: Adobe Illustrator 19.1.1, SVG Export Plug-In . SVG Version: 6.00 Build 0)  -->
<svg version="1.1" id="Layer_1" xmlns="http://www.w3.org/2000/svg" xmlns:xlink="http://www.w3.org/1999/xlink" x="0px" y="0px"
	 viewBox="0 0 40 40" style="enable-background:new 0 0 40 40;" xml:space="preserve">
<g>
	<path style="fill:#F78F8F;" d="M39.5,18.597C38.511,16.605,36.936,15.5,35,15.5h-1.5v-3H35C37.586,12.5,39.469,15.059,39.5,18.597z
		"/>
	<path style="fill:#C74343;" d="M35,13c1.802,0,3.219,1.444,3.761,3.634C37.756,15.571,36.475,15,35,15h-1v-2H35 M35,12h-2v4h2
		c2.433,0,4.039,1.942,4.729,4.699C39.889,20.058,40,19.39,40,18.683C40,14.936,37.998,12,35,12L35,12z"/>
</g>
<g>
	<path style="fill:#C74343;" d="M36.5,21.35c1.261-0.509,2.297-1.477,2.999-2.776c0,0.037,0.001,0.073,0.001,0.11
		c0,2.541-1.157,4.649-3,5.573V21.35z"/>
	<path style="fill:#C74343;" d="M38.805,20.375c-0.299,1.245-0.931,2.284-1.805,2.973v-1.671
		C37.672,21.36,38.279,20.92,38.805,20.375 M39.719,16.627C39.155,18.83,37.797,20.412,36,21v4c2.337-0.757,4-3.158,4-6.317
		C40,17.962,39.886,17.28,39.719,16.627L39.719,16.627z"/>
</g>
<g>
	<path style="fill:#F78F8F;" d="M0.5,18.597C0.531,15.059,2.414,12.5,5,12.5h1.5v3H5C3.064,15.5,1.489,16.605,0.5,18.597z"/>
	<path style="fill:#C74343;" d="M6,13v2H5c-1.475,0-2.756,0.571-3.761,1.634C1.781,14.444,3.198,13,5,13H6 M7,12H5
		c-2.998,0-5,2.936-5,6.683c0,0.707,0.111,1.375,0.271,2.015C0.961,17.942,2.567,16,5,16h2V12L7,12z"/>
</g>
<g>
	<path style="fill:#C74343;" d="M3.5,24.256c-1.843-0.924-3-3.032-3-5.573c0-0.037,0-0.073,0.001-0.11
		c0.702,1.299,1.738,2.267,2.999,2.776V24.256z"/>
	<path style="fill:#C74343;" d="M1.195,20.375C1.721,20.92,2.328,21.36,3,21.677v1.671C2.126,22.659,1.494,21.62,1.195,20.375
		 M0.281,16.627C0.114,17.28,0,17.962,0,18.683c0,3.158,1.663,5.56,4,6.317v-4C2.203,20.412,0.845,18.83,0.281,16.627L0.281,16.627z
		"/>
</g>
<g>
	<path style="fill:#FFEEA3;" d="M20,38.5c-3.882,0-14.5-8.22-14.5-14.5V5.261C6.538,4.567,11.606,1.5,20,1.5
		s13.462,3.067,14.5,3.761V24C34.5,30.443,23.987,38.5,20,38.5z"/>
	<path style="fill:#F5C276;" d="M20,2c7.773,0,12.634,2.67,14,3.532V24c0,6.063-10.252,14-14,14c-3.65,0-14-8.097-14-14V5.53
		C7.36,4.665,12.189,2,20,2 M20,1C10.28,1,5,5,5,5s0,12.324,0,19s10.938,15,15,15s15-8.191,15-15s0-19,0-19S29.72,1,20,1L20,1z"/>
</g>
<g>
	<path style="fill:#F5C276;" d="M20,1C10.28,1,5,5,5,5s0,12.324,0,19c0,6.676,10.938,15,15,15V1z"/>
</g>
<g>
	<path style="fill:#B08159;" d="M9.824,14.5c0.495-0.797,1.517-2,3.176-2s2.681,1.203,3.176,2H9.824z"/>
	<g>
		<path style="fill:#A16A4A;" d="M13,13c0.951,0,1.666,0.475,2.166,1H13h-2.165C11.335,13.475,12.05,13,13,13 M13,12
			c-2.809,0-4,3-4,3s2.544,0,4,0s4,0,4,0S15.809,12,13,12L13,12z"/>
	</g>
</g>
<g>
	<path style="fill:#B08159;" d="M20,28.5c-4.363,0-6.327-2.867-7.094-4.51C14.33,24.603,16.938,25.5,20,25.5s5.67-0.897,7.094-1.51
		C26.327,25.633,24.363,28.5,20,28.5z"/>
	<g>
		<path style="fill:#A16A4A;" d="M14.04,24.962C15.561,25.486,17.652,26,20,26c2.348,0,4.439-0.514,5.96-1.038
			C24.964,26.398,23.148,28,20,28C16.851,28,15.035,26.397,14.04,24.962 M28,23c0,0-3.531,2-8,2s-8-2-8-2s1.537,6,8,6S28,23,28,23
			L28,23z"/>
	</g>
</g>
<g>
	<path style="fill:#B08159;" d="M23.824,14.5c0.495-0.797,1.517-2,3.176-2s2.681,1.203,3.176,2H23.824z"/>
	<g>
		<path style="fill:#A16A4A;" d="M27,13c0.951,0,1.666,0.475,2.166,1H27h-2.165C25.335,13.475,26.05,13,27,13 M27,12
			c-2.809,0-4,3-4,3s2.544,0,4,0s4,0,4,0S29.809,12,27,12L27,12z"/>
	</g>
</g>
</svg>
