<?xml version="1.0" encoding="iso-8859-1"?>
<!-- Generator: Adobe Illustrator 19.1.1, SVG Export Plug-In . SVG Version: 6.00 Build 0)  -->
<svg version="1.1" id="Layer_1" xmlns="http://www.w3.org/2000/svg" xmlns:xlink="http://www.w3.org/1999/xlink" x="0px" y="0px"
	 viewBox="0 0 40 40" style="enable-background:new 0 0 40 40;" xml:space="preserve">
<g>
	<path style="fill:#839CB2;" d="M14.5,19.5v-3h2.044c0.082,0.538,0.316,1.403,0.982,2.072c0.511,0.513,1.173,0.815,1.973,0.902V19.5
		H14.5z"/>
	<g>
		<path style="fill:#66798F;" d="M16.132,17c0.142,0.583,0.435,1.317,1.041,1.925c0.025,0.026,0.051,0.051,0.077,0.075H15v-2H16.132
			 M17,16h-3v4h6v-1C16.989,19,17,16,17,16L17,16z"/>
	</g>
</g>
<g>
	<path style="fill:#839CB2;" d="M4,15.5c-0.134-0.001-3.166-0.057-3.475-3.001L3,12.5c0.555,0,0.893-0.227,1.079-0.417
		C4.258,11.9,4.361,11.688,4.42,11.5H5.5v4H4z"/>
	<g>
		<path style="fill:#66798F;" d="M5,12v3H4.001c-0.267,0-2.34-0.066-2.875-2.001L3,13c0.73,0,1.184-0.309,1.437-0.568
			C4.571,12.295,4.674,12.147,4.752,12H5 M6,11H4c0,0,0.024,1-1,1s-3-0.002-3-0.002C0,15.995,4,16,4,16h2V11L6,11z"/>
	</g>
</g>
<path style="fill:none;stroke:#788B9C;stroke-width:2;stroke-miterlimit:10;" d="M23,14v5c0,2.2-1.8,4-4,4h-6"/>
<g>
	<polygon style="fill:#4B6477;" points="7.5,8.5 7.5,7.5 9.793,7.5 10.293,8 9.793,8.5 	"/>
	<polygon style="fill:#36404D;" points="10,7 7,7 7,9 10,9 11,8 10,7 	"/>
</g>
<g>
	<polygon style="fill:#4B6477;" points="33.5,8.5 33.5,7.5 35.793,7.5 36.293,8 35.793,8.5 	"/>
	<polygon style="fill:#36404D;" points="36,7 33,7 33,9 36,9 37,8 36,7 	"/>
</g>
<g>
	<rect x="37.833" y="10.165" style="fill:#4B6477;" width="1.667" height="4.33"/>
	<g>
		<path style="fill:#36404D;" d="M39,10.665v3.33h-0.667v-3.33H39 M40,9.665h-2.667v5.33H40V9.665L40,9.665z"/>
	</g>
</g>
<g>
	<path style="fill:#BDCCD4;" d="M8.732,34.5c-0.176,0-0.354-0.022-0.527-0.065L2.131,33.06c-0.551-0.138-1.024-0.488-1.321-0.984
		c-0.298-0.496-0.385-1.078-0.245-1.639L4.5,16.396V10c0-0.827,0.673-1.5,1.5-1.5h32.5v7H16.559l-1,8h-0.143
		c-1.456,0-2.719,0.986-3.072,2.397l-1.515,6.978C10.59,33.825,9.727,34.5,8.732,34.5z"/>
	<path style="fill:#788B9C;" d="M38,9v6H17h-0.883l-0.109,0.876l-0.892,7.136c-1.557,0.126-2.873,1.229-3.265,2.794l-1.504,6.931
		C10.161,33.481,9.497,34,8.732,34c-0.136,0-0.273-0.017-0.428-0.056l-6.041-1.367c-0.432-0.108-0.796-0.377-1.025-0.759
		c-0.229-0.381-0.296-0.829-0.195-1.233l3.92-13.988L5,16.465v-0.137V10c0-0.551,0.449-1,1-1H38 M39,8H6c-1.105,0-2,0.895-2,2v6.328
		L0.08,30.316c-0.357,1.428,0.512,2.875,1.94,3.232l6.063,1.372C8.3,34.974,8.518,35,8.732,35c1.195,0,2.282-0.808,2.585-2.019
		l1.511-6.962C13.125,24.832,14.192,24,15.415,24H16l1-8h22V8L39,8z"/>
</g>
<g>
	<path style="fill:#839CB2;" d="M13,10.498c-0.276,0-0.5-0.224-0.5-0.5V8.5h6v1.498c0,0.276-0.224,0.5-0.5,0.5H13z"/>
	<g>
		<path style="fill:#66798F;" d="M18,9v0.998h-5V9H18 M19,8h-7v1.998c0,0.55,0.45,1,1,1h5c0.55,0,1-0.45,1-1V8L19,8z"/>
	</g>
</g>
<g>
	<rect x="7" y="12" style="fill:#36404D;" width="32" height="1"/>
	<polygon style="fill:#788B9C;" points="39,12 7,12 7,13 39,13 39,12 	"/>
</g>
<g>
	<polygon style="fill:#839CB2;" points="30.651,15.5 32.151,14.5 38.5,14.5 38.5,15.5 	"/>
	<polygon style="fill:#66798F;" points="39,14 32,14 29,16 39,16 39,14 	"/>
</g>
<g>
	<path style="fill:#839CB2;" d="M8.147,31.813l-4.726-1.07c-0.061-0.014-0.092-0.054-0.106-0.077
		c-0.014-0.023-0.034-0.071-0.017-0.13l4.249-15.041h4.471L8.347,31.688c-0.019,0.085-0.096,0.129-0.162,0.129
		C8.172,31.818,8.16,31.816,8.147,31.813z"/>
	<g>
		<path style="fill:#66798F;" d="M11.393,15.995l-3.46,15.257l-4.058-0.919l4.05-14.338H11.393 M12.645,14.995H7.169L2.817,30.4
			c-0.104,0.367,0.122,0.746,0.494,0.831l4.725,1.07c0.05,0.011,0.099,0.017,0.148,0.017c0.304,0,0.579-0.21,0.65-0.519
			L12.645,14.995L12.645,14.995z"/>
	</g>
</g>
<circle style="fill:#E1EBF2;" cx="6" cy="29" r="1.001"/>
<circle style="fill:#E1EBF2;" cx="8.999" cy="18" r="1.001"/>
</svg>
