<?xml version="1.0" encoding="iso-8859-1"?>
<!-- Generator: Adobe Illustrator 19.1.1, SVG Export Plug-In . SVG Version: 6.00 Build 0)  -->
<svg version="1.1" id="Layer_1" xmlns="http://www.w3.org/2000/svg" xmlns:xlink="http://www.w3.org/1999/xlink" x="0px" y="0px"
	 viewBox="0 0 40 40" style="enable-background:new 0 0 40 40;" xml:space="preserve">
<g>
	<path style="fill:#E0AC89;" d="M6,18.459c-3.032,0-5.5-2.467-5.5-5.5s2.468-5.5,5.5-5.5s5.5,2.467,5.5,5.5S9.032,18.459,6,18.459z"
		/>
	<g>
		<path style="fill:#A16A4A;" d="M6,7.96c2.757,0,5,2.243,5,5s-2.243,5-5,5s-5-2.243-5-5S3.243,7.96,6,7.96 M6,6.96
			c-3.314,0-6,2.686-6,6c0,3.314,2.686,6,6,6s6-2.686,6-6C12,9.646,9.314,6.96,6,6.96L6,6.96z"/>
	</g>
</g>
<g>
	<circle style="fill:#36404D;" cx="6" cy="13" r="2"/>
</g>
<g>
	<path style="fill:#E0AC89;" d="M21,18.5c-4.687,0-8.5-3.813-8.5-8.5s3.813-8.5,8.5-8.5s8.5,3.813,8.5,8.5S25.687,18.5,21,18.5z"/>
	<g>
		<path style="fill:#A16A4A;" d="M21,2c4.411,0,8,3.589,8,8s-3.589,8-8,8s-8-3.589-8-8S16.589,2,21,2 M21,1c-4.971,0-9,4.029-9,9
			s4.029,9,9,9s9-4.029,9-9S25.971,1,21,1L21,1z"/>
	</g>
</g>
<g>
	<circle style="fill:#36404D;" cx="21" cy="10" r="2"/>
</g>
<g>
	<path style="fill:#A3B7CC;" d="M2.652,38.5c-1.187,0-2.151-0.965-2.151-2.151V21.652c0-1.187,0.965-2.152,2.151-2.152h23.697
		c1.187,0,2.151,0.965,2.151,2.152v14.697c0,1.186-0.965,2.151-2.151,2.151H2.652z"/>
	<path style="fill:#8499AD;" d="M26.349,20C27.259,20,28,20.741,28,21.651v14.697C28,37.259,27.259,38,26.349,38H2.651
		C1.741,38,1,37.259,1,36.349V21.651C1,20.741,1.741,20,2.651,20H26.349 M26.349,19H2.651C1.187,19,0,20.187,0,21.651v14.697
		C0,37.813,1.187,39,2.651,39h23.697C27.813,39,29,37.813,29,36.349V21.651C29,20.187,27.813,19,26.349,19L26.349,19z"/>
</g>
<g>
	<polygon style="fill:#839CB2;" points="37.222,37.5 31.801,31.5 29.5,31.5 29.5,26.5 31.801,26.5 37.222,20.5 39.5,20.5 39.5,37.5 
			"/>
	<path style="fill:#66798F;" d="M39,21v16h-1.556l-5.123-5.67L32.023,31h-0.444H30v-4h1.579h0.444l0.298-0.33L37.444,21H39 M40,20
		h-3l-5.421,6H29v6h2.579L37,38h3V20L40,20z"/>
</g>
<rect x="30" y="27" style="fill:#66798F;" width="2" height="4"/>
</svg>
