<?xml version="1.0" encoding="iso-8859-1"?>
<!-- Generator: Adobe Illustrator 19.1.1, SVG Export Plug-In . SVG Version: 6.00 Build 0)  -->
<svg version="1.1" id="Layer_1" xmlns="http://www.w3.org/2000/svg" xmlns:xlink="http://www.w3.org/1999/xlink" x="0px" y="0px"
	 viewBox="0 0 40 40" style="enable-background:new 0 0 40 40;" xml:space="preserve">
<g>
	<path style="fill:#DCD5F2;" d="M39.5,18.597C38.511,16.605,36.936,15.5,35,15.5h-1.5v-3H35C37.586,12.5,39.469,15.059,39.5,18.597z
		"/>
	<g>
		<path style="fill:#8B75A1;" d="M35,13c1.802,0,3.219,1.444,3.761,3.634C37.756,15.571,36.475,15,35,15h-1v-2H35 M35,12h-2v4h2
			c2.433,0,4.039,1.942,4.729,4.699C39.889,20.058,40,19.39,40,18.683C40,14.936,37.998,12,35,12L35,12z"/>
	</g>
</g>
<g>
	<path style="fill:#8B75A1;" d="M36.5,21.35c1.261-0.509,2.297-1.477,2.999-2.776c0,0.037,0.001,0.073,0.001,0.11
		c0,2.541-1.157,4.649-3,5.573V21.35z"/>
	<g>
		<path style="fill:#8B75A1;" d="M38.805,20.375c-0.299,1.244-0.931,2.284-1.805,2.973v-1.671
			C37.672,21.36,38.279,20.92,38.805,20.375 M39.719,16.627C39.155,18.83,37.797,20.412,36,21v4c2.337-0.757,4-3.158,4-6.317
			C40,17.962,39.886,17.28,39.719,16.627L39.719,16.627z"/>
	</g>
</g>
<g>
	<path style="fill:#DCD5F2;" d="M0.5,18.597C0.531,15.059,2.414,12.5,5,12.5h1.5v3H5C3.064,15.5,1.489,16.605,0.5,18.597z"/>
	<g>
		<path style="fill:#8B75A1;" d="M6,13v2H5c-1.475,0-2.756,0.571-3.761,1.634C1.781,14.444,3.198,13,5,13H6 M7,12H5
			c-2.998,0-5,2.936-5,6.683c0,0.707,0.111,1.375,0.271,2.015C0.961,17.942,2.567,16,5,16h2V12L7,12z"/>
	</g>
</g>
<g>
	<path style="fill:#8B75A1;" d="M3.5,24.256c-1.843-0.924-3-3.032-3-5.573c0-0.037,0-0.073,0.001-0.11
		c0.702,1.299,1.738,2.267,2.999,2.776V24.256z"/>
	<g>
		<path style="fill:#8B75A1;" d="M1.195,20.375C1.721,20.92,2.328,21.36,3,21.677v1.671C2.126,22.659,1.494,21.619,1.195,20.375
			 M0.281,16.627C0.114,17.28,0,17.962,0,18.683c0,3.158,1.663,5.56,4,6.317v-4C2.203,20.412,0.845,18.83,0.281,16.627L0.281,16.627
			z"/>
	</g>
</g>
<g>
	<path style="fill:#FFEEA3;" d="M20,38.5c-3.882,0-14.5-8.22-14.5-14.5V5.261C6.538,4.567,11.606,1.5,20,1.5
		s13.462,3.067,14.5,3.761V24C34.5,30.443,23.987,38.5,20,38.5z"/>
	<path style="fill:#F5C276;" d="M20,2c7.773,0,12.634,2.67,14,3.532V24c0,6.063-10.252,14-14,14c-3.65,0-14-8.097-14-14V5.53
		C7.36,4.665,12.189,2,20,2 M20,1C10.28,1,5,5,5,5s0,12.324,0,19s10.938,15,15,15s15-8.191,15-15s0-19,0-19S29.72,1,20,1L20,1z"/>
</g>
<g>
	<path style="fill:#F5C276;" d="M20,1C10.28,1,5,5,5,5s0,12.324,0,19c0,6.676,10.938,15,15,15V1z"/>
</g>
<g>
	<path style="fill:#B08159;" d="M27.094,28.01C25.67,27.397,23.062,26.5,20,26.5s-5.67,0.897-7.094,1.51
		c0.767-1.643,2.731-4.51,7.094-4.51S26.327,26.367,27.094,28.01z"/>
	<g>
		<path style="fill:#A16A4A;" d="M20,24c3.149,0,4.965,1.603,5.96,3.038C24.439,26.514,22.348,26,20,26
			c-2.348,0-4.439,0.514-5.96,1.038C15.036,25.602,16.852,24,20,24 M20,23c-6.463,0-8,6-8,6s3.531-2,8-2s8,2,8,2S26.463,23,20,23
			L20,23z"/>
	</g>
</g>
<g>
	<path style="fill:#B08159;" d="M30.364,15.861C29.383,15.244,27.651,14.5,25,14.5h-1.176c0.495-0.797,1.517-2,3.176-2
		C29.314,12.5,30.099,14.523,30.364,15.861z"/>
	<g>
		<path style="fill:#A16A4A;" d="M27,13c1.402,0,2.149,0.916,2.547,1.874C28.469,14.402,26.972,14,25,14h-0.165
			C25.335,13.475,26.05,13,27,13 M27,12c-2.809,0-4,3-4,3s0.544,0,2,0c4.26,0,6,2,6,2S30.914,12,27,12L27,12z"/>
	</g>
</g>
<g>
	<path style="fill:#B08159;" d="M9.639,15.859C9.907,14.521,10.695,12.5,13,12.5c1.659,0,2.681,1.203,3.176,2H15
		C12.352,14.5,10.621,15.242,9.639,15.859z"/>
	<g>
		<path style="fill:#A16A4A;" d="M13,13c0.951,0,1.666,0.475,2.166,1H15c-1.972,0-3.469,0.402-4.547,0.874
			C10.851,13.916,11.598,13,13,13 M13,12c-3.914,0-4,5-4,5s1.74-2,6-2c1.456,0,2,0,2,0S15.809,12,13,12L13,12z"/>
	</g>
</g>
</svg>
