<?xml version="1.0"?>
<svg xmlns="http://www.w3.org/2000/svg" id="Layer_1" data-name="Layer 1" viewBox="0 0 64 64"><title>Icons8 RSL Colored Part 10</title><path d="M41,57.78A2.22,2.22,0,0,1,38.78,60h0a2,2,0,0,1-2-1.77L35,42h6Z" style="fill:#faefde;"/><path d="M43.22,60h0A2.22,2.22,0,0,1,41,57.78V42h6L45.21,58.23A2,2,0,0,1,43.22,60Z" style="fill:#faefde;"/><path d="M54,34.87l-1.57-11A8,8,0,0,0,44.47,17H40.35a8,8,0,0,0-7.92,6.87l-7.87,19c-.08.6,9.39,1.13,10,1.13H50.26a1,1,0,0,0,1-1.13l-.61-4.47.76.61A3.79,3.79,0,0,0,54,34.87Z" style="fill:#ed7899;"/><path d="M32,28.35l-2.09-6L29,20.67A7,7,0,0,0,22.82,17H16.75a7,7,0,0,0-5.82,3.12h0A11.44,11.44,0,0,0,9,26.46V36.71a2.5,2.5,0,0,0,5,0v.5l-.86,19.66a3,3,0,0,0,3,3.13h0a3,3,0,0,0,3-2.86L20,40.21l.86,16.93a3,3,0,0,0,3,2.86h0A3.19,3.19,0,0,0,27,56.77Z" style="fill:#85cbf8;"/><circle cx="42" cy="9" r="5" style="fill:#faefde;"/><circle cx="20" cy="9" r="5" style="fill:#faefde;"/><circle cx="31.5" cy="26.5" r="4.5" style="fill:#faefde;"/><path d="M32,51v6.5A2.5,2.5,0,0,0,34.5,60h0A2.51,2.51,0,0,0,37,57.5V48a2,2,0,0,0,2-2V39a6,6,0,0,0-6-6H31a6,6,0,0,0-6,6v7a2,2,0,0,0,2,2v9.5A2.51,2.51,0,0,0,29.5,60h0A2.5,2.5,0,0,0,32,57.5V49" style="fill:#72caaf;"/><path d="M6,31a1,1,0,0,0-1,1v2a1,1,0,0,0,2,0V32A1,1,0,0,0,6,31Z" style="fill:#8d6c9f;"/><path d="M1,31a1,1,0,0,0-1,1v2a1,1,0,0,0,2,0V32A1,1,0,0,0,1,31Z" style="fill:#8d6c9f;"/><path d="M56,31a1,1,0,0,0-1,1v2a1,1,0,0,0,2,0V32A1,1,0,0,0,56,31Z" style="fill:#8d6c9f;"/><path d="M61,31a1,1,0,0,0-1,1v2a1,1,0,0,0,2,0V32A1,1,0,0,0,61,31Z" style="fill:#8d6c9f;"/><path d="M42,15a6,6,0,1,0-6-6A6,6,0,0,0,42,15ZM42,5a4,4,0,1,1-4,4A4,4,0,0,1,42,5Z" style="fill:#8d6c9f;"/><path d="M53.38,23.73A9,9,0,0,0,44.47,16H40.35a9,9,0,0,0-8.12,5.16,4.41,4.41,0,0,0-.73-.06,5.6,5.6,0,0,0-1.09.11l-.55-1a8,8,0,0,0-7-4.2H16.75a8,8,0,0,0-6.66,3.56A12.38,12.38,0,0,0,8,26.46V36.71a3.48,3.48,0,0,0,4.88,3.21l-.74,16.91A4,4,0,0,0,20,58.06,4,4,0,0,0,23.87,61a4.07,4.07,0,0,0,3-1.28A3.48,3.48,0,0,0,32,60a3.5,3.5,0,0,0,4.74.24,2.94,2.94,0,0,0,2,.81A3.2,3.2,0,0,0,41,60.11a3.19,3.19,0,0,0,2.21.89,3,3,0,0,0,3-2.66L47.67,45h2.59a2,2,0,0,0,1.51-.68,2.05,2.05,0,0,0,.48-1.59l-.39-2.84A4.78,4.78,0,0,0,55,34.73Zm-22.22-.81.34,0h.1a3.44,3.44,0,0,1,1.91.61,3.6,3.6,0,1,1-4.21.14A3.44,3.44,0,0,1,31.16,22.92ZM34.5,59A1.5,1.5,0,0,1,33,57.5V49a1,1,0,0,0-2,0v8.5a1.5,1.5,0,0,1-3,0V48a1,1,0,0,0-1-1,1,1,0,0,1-1-1V39a5,5,0,0,1,5-5h2a5,5,0,0,1,5,5v7a1,1,0,0,1-1,1,1,1,0,0,0-.43.1A1,1,0,0,0,36,48v9.5a1.37,1.37,0,0,1-.21.75A1.48,1.48,0,0,1,34.5,59Zm4.28,0a1,1,0,0,1-.91-.58A3.1,3.1,0,0,0,38,57.5V48.83A3,3,0,0,0,40,46V57.78A1.22,1.22,0,0,1,38.78,59Zm5.43-.88a1,1,0,0,1-1,.88A1.22,1.22,0,0,1,42,57.78V45h3.66Zm7.37-20.29L49.67,23.75a1,1,0,0,0-1.12-.86A1,1,0,0,0,47.69,24l2.57,19H40V39a7,7,0,0,0-7-7H31a7,7,0,0,0-7,7v7a3,3,0,0,0,2,2.83v7.94A2.19,2.19,0,0,1,23.86,59a2,2,0,0,1-2-1.91L21,40.16a1,1,0,0,0-2,0L18.14,57.1a2,2,0,0,1-4-.18L15,37.21h0V24.63a1,1,0,0,0-2,0v0h0v12a1.5,1.5,0,0,1-3,0V26.46a10.47,10.47,0,0,1,1.75-5.79,6,6,0,0,1,5-2.67h6.07a6,6,0,0,1,5.28,3.15l.45.83a5.4,5.4,0,1,0,5.59-.19A7,7,0,0,1,40.35,18h4.12a7,7,0,0,1,6.93,6L53,35A2.78,2.78,0,0,1,51.58,37.83Z" style="fill:#8d6c9f;"/><path d="M20,15a6,6,0,1,0-6-6A6,6,0,0,0,20,15ZM20,5a4,4,0,1,1-4,4A4,4,0,0,1,20,5Z" style="fill:#8d6c9f;"/></svg>
