<?xml version="1.0" encoding="iso-8859-1"?>
<!-- Generator: Adobe Illustrator 19.1.1, SVG Export Plug-In . SVG Version: 6.00 Build 0)  -->
<svg version="1.1" id="Layer_1" xmlns="http://www.w3.org/2000/svg" xmlns:xlink="http://www.w3.org/1999/xlink" x="0px" y="0px"
	 viewBox="0 0 40 40" style="enable-background:new 0 0 40 40;" xml:space="preserve">
<g>
	<path style="fill:#C2E8FF;" d="M31.104,18.068c-0.334-0.59-0.939-0.942-1.618-0.942c-0.679,0-1.284,0.352-1.618,0.943l-0.76,1.341
		l-0.184-0.053l0.079-1.582c0.025-0.514-0.154-1-0.506-1.368c-0.353-0.371-0.846-0.583-1.353-0.583
		c-0.301,0-0.592,0.072-0.865,0.216l-1.459,0.767l-0.095-0.107l0.996-1.41c0.387-0.547,0.451-1.237,0.171-1.846
		c-0.28-0.61-0.847-1.011-1.516-1.074l-1.829-0.172l-0.011-0.075l1.724-0.694c0.622-0.25,1.05-0.795,1.146-1.457
		c0.096-0.662-0.16-1.305-0.685-1.721l-1.576-1.249l0.004-0.01l1.915,0.379c0.125,0.025,0.249,0.037,0.369,0.037
		c0.596,0,1.16-0.292,1.509-0.783c0.352-0.493,0.44-1.105,0.242-1.68l-0.658-1.911l1.398,1.359c0.35,0.34,0.808,0.527,1.291,0.527
		c0.87,0,1.616-0.589,1.815-1.431l0.455-1.922l0.454,1.922c0.2,0.843,0.946,1.431,1.816,1.431c0.482,0,0.94-0.187,1.29-0.526
		l1.398-1.358l-0.658,1.91c-0.198,0.575-0.109,1.188,0.242,1.681c0.35,0.49,0.914,0.782,1.509,0.782c0.12,0,0.244-0.012,0.369-0.036
		l1.896-0.376l0.008,0.017L36.249,8.25c-0.524,0.416-0.78,1.059-0.685,1.72c0.096,0.662,0.523,1.207,1.145,1.457l1.725,0.694
		l-0.011,0.075l-1.829,0.172c-0.668,0.063-1.235,0.464-1.516,1.074c-0.28,0.608-0.216,1.298,0.171,1.846l0.996,1.41l-0.095,0.107
		l-1.459-0.767c-0.272-0.144-0.563-0.216-0.865-0.216c-0.507,0-1,0.212-1.353,0.583c-0.352,0.369-0.531,0.855-0.505,1.368
		l0.079,1.582l-0.184,0.053L31.104,18.068z"/>
	<path style="fill:#8BB7F0;" d="M29.486,3.725c0.293,1.004,1.21,1.695,2.27,1.695c0.568,0,1.108-0.203,1.537-0.575
		c-0.224,0.711-0.106,1.462,0.328,2.07c0.443,0.621,1.159,0.992,1.916,0.992c0.126,0,0.252-0.01,0.378-0.03
		c-0.65,0.528-0.965,1.335-0.845,2.165c0.12,0.828,0.649,1.512,1.419,1.835c-0.823,0.097-1.517,0.601-1.864,1.357
		c-0.35,0.76-0.277,1.621,0.193,2.31c-0.314-0.146-0.647-0.22-0.991-0.22c-0.643,0-1.268,0.269-1.715,0.739
		c-0.424,0.446-0.651,1.025-0.645,1.64c-0.436-0.677-1.166-1.077-1.981-1.077s-1.545,0.4-1.981,1.076
		c0.006-0.615-0.221-1.194-0.645-1.64c-0.447-0.469-1.072-0.738-1.715-0.738c-0.339,0-0.679,0.076-0.991,0.221
		c0.47-0.689,0.543-1.55,0.193-2.31c-0.347-0.756-1.041-1.259-1.864-1.357c0.77-0.323,1.299-1.007,1.419-1.835
		c0.12-0.83-0.196-1.637-0.845-2.165c0.126,0.02,0.252,0.03,0.378,0.03c0.756,0,1.473-0.371,1.916-0.992
		c0.434-0.609,0.552-1.36,0.328-2.07c0.429,0.372,0.97,0.575,1.537,0.575C28.276,5.42,29.192,4.729,29.486,3.725 M29.486,1
		c-0.13,0-0.256,0.014-0.384,0.019l-0.557,2.354c-0.156,0.658-0.734,1.046-1.328,1.046c-0.333,0-0.67-0.122-0.942-0.385l-1.71-1.661
		c-0.353,0.223-0.299,0.189-0.651,0.413l0.8,2.322c0.31,0.901-0.377,1.8-1.278,1.8c-0.089,0-0.18-0.009-0.272-0.027l-2.3-0.456
		c-0.181,0.39-0.154,0.333-0.335,0.723l1.885,1.494c0.816,0.647,0.63,1.933-0.337,2.322l-2.09,0.841
		c0.067,0.46,0.057,0.393,0.124,0.853l2.22,0.209c1.04,0.098,1.585,1.281,0.983,2.134l-1.224,1.732
		c0.332,0.378,0.283,0.322,0.615,0.7l1.808-0.95c0.207-0.109,0.423-0.158,0.633-0.158c0.735,0,1.399,0.61,1.358,1.426l-0.098,1.977
		c0.511,0.148,0.432,0.125,0.943,0.273l0.954-1.685c0.26-0.459,0.722-0.689,1.183-0.689s0.923,0.23,1.183,0.689L31.623,20
		c0.511-0.148,0.432-0.125,0.943-0.273l-0.098-1.977c-0.041-0.817,0.623-1.426,1.358-1.426c0.21,0,0.426,0.05,0.633,0.158
		l1.808,0.951c0.332-0.378,0.283-0.322,0.615-0.7l-1.224-1.732c-0.602-0.852-0.057-2.036,0.983-2.134l2.22-0.209
		c0.067-0.46,0.057-0.393,0.124-0.853l-2.09-0.841c-0.966-0.389-1.153-1.675-0.337-2.322l1.87-1.482
		c-0.183-0.395-0.156-0.337-0.339-0.731l-2.282,0.452c-0.092,0.018-0.183,0.027-0.272,0.027c-0.902,0-1.589-0.898-1.278-1.8
		l0.8-2.322c-0.353-0.223-0.299-0.189-0.651-0.413l-1.71,1.661c-0.272,0.264-0.609,0.385-0.942,0.385
		c-0.595,0-1.173-0.388-1.328-1.046L29.87,1.019C29.741,1.014,29.615,1,29.486,1L29.486,1z"/>
</g>
<g>
	<path style="fill:#FFEEA3;" d="M18.946,18.077l9.132-9.33C28.236,8.589,28.451,8.5,28.68,8.5c0.229,0,0.444,0.089,0.606,0.251
		l1.919,1.919c0.334,0.334,0.334,0.878,0,1.212l-9.128,9.326L18.946,18.077z"/>
	<g>
		<path style="fill:#C29653;" d="M28.68,9c0.055,0,0.162,0.014,0.253,0.105l1.919,1.919c0.091,0.091,0.105,0.197,0.105,0.253
			s-0.014,0.162-0.112,0.26l-8.771,8.961l-2.424-2.424l8.778-8.969C28.518,9.014,28.625,9,28.68,9 M28.68,8
			c-0.347,0-0.695,0.133-0.96,0.397l-9.478,9.683l3.838,3.838l9.478-9.683c0.53-0.53,0.53-1.389,0-1.919L29.64,8.397
			C29.375,8.133,29.027,8,28.68,8L28.68,8z"/>
	</g>
</g>
<g>
	<path style="fill:#839CB2;" d="M4.276,38.5c-0.229,0-0.444-0.089-0.606-0.251L1.751,36.33c-0.334-0.334-0.334-0.878,0-1.212
		l17.409-17.25l3.131,3.131L4.884,38.248C4.721,38.411,4.505,38.5,4.276,38.5z"/>
	<g>
		<path style="fill:#66798F;" d="M19.159,18.573l2.424,2.424L4.529,37.895C4.438,37.986,4.331,38,4.276,38s-0.162-0.014-0.253-0.105
			l-1.919-1.919C2.014,35.885,2,35.779,2,35.724s0.014-0.162,0.101-0.249L19.159,18.573 M19.162,17.162L1.398,34.764
			c-0.53,0.53-0.53,1.389,0,1.919l1.919,1.919C3.582,38.867,3.929,39,4.276,39s0.695-0.133,0.96-0.397L23,21L19.162,17.162
			L19.162,17.162z"/>
	</g>
</g>
<g>
	<path style="fill:#C2E8FF;" d="M35.456,38.5c-0.246-1.386-1.483-2.544-2.956-2.763v-0.278c1.46-0.24,2.719-1.499,2.959-2.959h0.082
		c0.24,1.46,1.499,2.719,2.959,2.959v0.082c-1.46,0.24-2.719,1.499-2.959,2.959H35.456z"/>
	<path style="fill:#8BB7F0;" d="M35.5,33.845c0.386,0.687,0.969,1.27,1.655,1.655c-0.693,0.389-1.28,0.979-1.665,1.673
		c-0.409-0.688-1.036-1.252-1.786-1.598C34.451,35.193,35.088,34.578,35.5,33.845 M36,32h-1c0,1.546-1.454,3-3,3v1.2
		c1.546,0,3,1.254,3,2.8h1c0-1.546,1.454-3,3-3v-1C37.454,35,36,33.546,36,32L36,32z"/>
</g>
<g>
	<path style="fill:#C2E8FF;" d="M27.456,31.5c-0.246-1.386-1.483-2.544-2.956-2.763v-0.278c1.46-0.24,2.719-1.499,2.959-2.959h0.082
		c0.24,1.46,1.499,2.719,2.959,2.959v0.082c-1.46,0.24-2.719,1.499-2.959,2.959H27.456z"/>
	<path style="fill:#8BB7F0;" d="M27.5,26.845c0.386,0.687,0.969,1.27,1.655,1.655c-0.693,0.389-1.28,0.979-1.665,1.673
		c-0.409-0.688-1.036-1.252-1.786-1.598C26.451,28.193,27.088,27.578,27.5,26.845 M28,25h-1c0,1.546-1.454,3-3,3v1.2
		c1.546,0,3,1.254,3,2.8h1c0-1.546,1.454-3,3-3v-1C29.454,28,28,26.546,28,25L28,25z"/>
</g>
</svg>
