<?xml version="1.0" encoding="iso-8859-1"?>
<!-- Generator: Adobe Illustrator 19.1.1, SVG Export Plug-In . SVG Version: 6.00 Build 0)  -->
<svg version="1.1" id="Layer_1" xmlns="http://www.w3.org/2000/svg" xmlns:xlink="http://www.w3.org/1999/xlink" x="0px" y="0px"
	 viewBox="0 0 40 40" style="enable-background:new 0 0 40 40;" xml:space="preserve">
<g>
	<path style="fill:#C2E8FF;" d="M20.003,26.296l-2.034,2.028l-5.229-4.357L31.193,5.515c0.134,0.007,0.319,0.014,0.545,0.014
		c1.522,0,4.838-0.295,6.766-2.667C38.498,9.435,37.84,14.386,23,29.293L20.003,26.296z"/>
	<g>
		<path style="fill:#7496C4;" d="M37.991,4.089c-0.137,5.839-1.576,10.956-14.992,24.496l-2.288-2.288l-0.706-0.706l-0.707,0.705
			l-1.357,1.353l-4.458-3.715l17.91-17.91c0.102,0.003,0.219,0.005,0.347,0.005C33.127,6.028,35.93,5.792,37.991,4.089 M39,1
			c-1.387,3.642-5.556,4.028-7.261,4.028C31.28,5.028,31,5,31,5L12,24l6,5l2.003-1.997L23,30C39.705,13.295,39,8.801,39,1L39,1z"/>
	</g>
</g>
<g>
	<path style="fill:#F78F8F;" d="M26.5,34.5c-0.498,0-1-0.31-1-1c0-0.418,0.499-1.517,1-2.467c0.501,0.95,1,2.049,1,2.467
		C27.5,34.19,26.998,34.5,26.5,34.5z"/>
	<path style="fill:#C74343;" d="M26.5,32.151c0.294,0.628,0.492,1.145,0.5,1.349c0,0.435-0.313,0.5-0.5,0.5S26,33.935,26,33.503
		C26.008,33.298,26.206,32.78,26.5,32.151 M26.5,30c0,0-1.5,2.58-1.5,3.5s0.672,1.5,1.5,1.5s1.5-0.58,1.5-1.5S26.5,30,26.5,30
		L26.5,30z"/>
</g>
<polygon style="fill:#7496C4;" points="20.707,21 20,20.293 35.293,5 37.667,4.04 "/>
<g>
	<path style="fill:#F78F8F;" d="M31,28.5c-0.827,0-1.5-0.673-1.5-1.5c0-0.16,0.081-0.703,0.832-2.282
		c0.169-0.357,0.291-0.772,0.371-1.268c0.009-0.054,0.027-0.166-0.004-0.296c-0.081-0.346-0.348-0.569-0.681-0.569
		c-0.342,0-0.728,0.235-1.252,0.764c-0.236,0.236-0.461,0.47-0.686,0.703c0.415-0.845,0.825-1.732,1.186-2.602
		c0.018,0.002,0.036,0.003,0.055,0.003c0.276,0,0.5-0.224,0.5-0.5c0-0.163-0.078-0.308-0.198-0.398
		C30.145,19.175,30.5,17.901,30.5,17l0-0.282c-0.003-2.013-0.005-2.766,1.631-3.584C34.404,11.997,34.5,10.738,34.5,8l0-2.776
		c0.824-0.223,2.704-0.875,4.009-2.433c0.021,3.454-0.038,6.499-1.808,10.076c-0.757,1.532-1.979,3.213-3.167,4.804
		c-0.069,0.091-0.166,0.206-0.279,0.342c-0.614,0.733-1.756,2.101-2.046,3.747c-0.028,0.201-0.044,0.386-0.044,0.573v0.141
		c0,0.777,0.174,1.553,0.502,2.244C32.419,26.297,32.5,26.84,32.5,27C32.5,27.827,31.827,28.5,31,28.5z"/>
	<path style="fill:#C74343;" d="M38.011,3.985c-0.018,2.916-0.243,5.6-1.757,8.661c-0.739,1.495-1.946,3.154-3.113,4.718
		c-0.069,0.09-0.162,0.201-0.269,0.33c-0.643,0.769-1.84,2.202-2.16,4.02c-0.028,0.208-0.042,0.389-0.045,0.564
		c-0.187-0.123-0.41-0.193-0.65-0.193c-0.172,0-0.343,0.034-0.521,0.105C30.313,20.314,31,18.337,31,17l0-0.283
		c-0.003-1.985-0.004-2.457,1.355-3.137C34.882,12.317,35,10.798,35,8l0-2.405C35.767,5.351,36.949,4.867,38.011,3.985
		 M30.995,24.393c0.065,0.184,0.139,0.364,0.222,0.539C31.982,26.543,32,26.983,32,27c0,0.551-0.449,1-1,1c-0.551,0-1-0.449-1-0.999
		c0-0.018,0.018-0.458,0.783-2.069C30.863,24.763,30.934,24.584,30.995,24.393 M39,1c-1.219,3.125-5,3.828-5,3.828S34,7.331,34,8
		c0,2.713-0.095,3.687-2.093,4.686C29.909,13.685,30,14.749,30,17c0,2.162-2.289,6.923-4,9.906c0.087-0.151,0.282-0.292,0.404-0.417
		c0.153-0.157,0.306-0.314,0.46-0.471c0.298-0.304,0.596-0.608,0.894-0.912c0.453-0.463,0.895-0.938,1.353-1.396
		c0.105-0.105,0.614-0.625,0.907-0.625c0.092,0,0.164,0.051,0.194,0.183c0.008,0.033,0.003,0.068-0.003,0.102
		c-0.063,0.388-0.16,0.776-0.329,1.132C29.423,25.464,29,26.492,29,27c0,1.105,0.895,2,2,2c1.105,0,2-0.896,2-2
		c0-0.508-0.423-1.535-0.88-2.497c-0.301-0.634-0.453-1.327-0.453-2.029v-0.141c0-0.165,0.015-0.327,0.036-0.487
		c0.319-1.81,1.767-3.264,2.234-3.876c1.344-1.801,2.473-3.383,3.214-4.881C39.281,8.781,39,5.139,39,1L39,1z"/>
</g>
<g>
	<path style="fill:#839CB2;" d="M5.221,38.514L1.707,35L14.5,22.207l4.922,4.922C15.536,37.693,7.845,38.521,5.562,38.521
		C5.562,38.521,5.305,38.518,5.221,38.514z"/>
	<g>
		<path style="fill:#66798F;" d="M14.5,22.914l4.341,4.341C15.033,37.232,7.74,38.021,5.562,38.021c-0.046,0-0.088,0-0.128-0.001
			L2.414,35L14.5,22.914 M14.5,21.5L1,35l4,4c0,0,0.202,0.021,0.562,0.021C7.78,39.021,16.011,38.237,20,27L14.5,21.5L14.5,21.5z"/>
	</g>
</g>
<circle style="fill:#E1EBF2;" cx="14" cy="28" r="1"/>
<circle style="fill:#E1EBF2;" cx="8" cy="34" r="1"/>
</svg>
