<?xml version="1.0"?>
<svg xmlns="http://www.w3.org/2000/svg" id="Layer_1" data-name="Layer 1" viewBox="0 0 64 64"><title>Icons8 RSL Colored Part 7</title><path d="M17,14.71V43.18a1,1,0,0,1-1.18,1A10.52,10.52,0,0,0,14,44c-5,0-9,3.36-9,7.5S9,59,14,59c4.77,0,8.66-3.09,9-7l0-25.09a1,1,0,0,1,.84-1l24-3.79a1,1,0,0,1,1.16,1V37.18a1,1,0,0,1-1.18,1A10.52,10.52,0,0,0,46,38c-5,0-9,3.36-9,7.5S41,53,46,53c4.77,0,8.66-3.09,9-7L55,9.34a2,2,0,0,0-2.31-2l-34,5.37A2,2,0,0,0,17,14.71Z" style="fill:#f9e3ae;"/><path d="M15,54c-4.42,0-8.09-2.66-8.85-6.16A6.52,6.52,0,0,0,5,51.5C5,55.64,9,59,14,59c4.77,0,8.66-3.09,9-7V50A9.32,9.32,0,0,1,15,54Z" style="fill:#f6d397;"/><path d="M47,48c-4.42,0-8.09-2.66-8.85-6.16A6.52,6.52,0,0,0,37,45.5c0,4.14,4,7.5,9,7.5,4.77,0,8.66-3.09,9-7V44A9.32,9.32,0,0,1,47,48Z" style="fill:#f6d397;"/><path d="M55,9.34a2,2,0,0,0-2.31-2l-34,5.37a2,2,0,0,0-1.69,2V18l38-6Z" style="fill:#faefde;"/><path d="M55.95,7.06a3,3,0,0,0-2.42-.68l-34,5.37a3,3,0,0,0-2.53,3V43.17A11.56,11.56,0,0,0,15,43C9.49,43,5,46.81,5,51.5S9.49,60,15,60c5.24,0,9.64-3.48,10-8V26.91l24-3.79V37.17A11.56,11.56,0,0,0,47,37c-5.51,0-10,3.81-10,8.5S41.49,54,47,54c5.24,0,9.64-3.48,10-8V9.34A3,3,0,0,0,55.95,7.06ZM55,45.92C54.73,49.33,51.2,52,47,52c-4.41,0-8-2.92-8-6.5S42.59,39,47,39a9.52,9.52,0,0,1,1.65.14,2,2,0,0,0,1.64-.44A2,2,0,0,0,51,37.18V23.12a2,2,0,0,0-2.31-2l-24,3.79a2,2,0,0,0-1.69,2v25C22.73,55.33,19.2,58,15,58c-4.41,0-8-2.92-8-6.5S10.59,45,15,45a9.52,9.52,0,0,1,1.65.14,2,2,0,0,0,1.64-.44A2,2,0,0,0,19,43.18V14.71a1,1,0,0,1,.85-1l34-5.37a1,1,0,0,1,1.16,1Z" style="fill:#8d6c9f;"/><path d="M31,13.75a1,1,0,0,0-1,1v2a1,1,0,0,0,2,0v-2A1,1,0,0,0,31,13.75Z" style="fill:#8d6c9f;"/><path d="M26,14.5a1,1,0,0,0-1,1v2a1,1,0,0,0,2,0v-2A1,1,0,0,0,26,14.5Z" style="fill:#8d6c9f;"/><path d="M21,15.25a1,1,0,0,0-1,1v2a1,1,0,0,0,2,0v-2A1,1,0,0,0,21,15.25Z" style="fill:#8d6c9f;"/><path d="M36,12.75a1,1,0,0,0-1,1v2a1,1,0,0,0,2,0v-2A1,1,0,0,0,36,12.75Z" style="fill:#8d6c9f;"/><path d="M41,12a1,1,0,0,0-1,1v2a1,1,0,0,0,2,0V13A1,1,0,0,0,41,12Z" style="fill:#8d6c9f;"/><path d="M46,11.25a1,1,0,0,0-1,1v2a1,1,0,0,0,2,0v-2A1,1,0,0,0,46,11.25Z" style="fill:#8d6c9f;"/><path d="M51,10.5a1,1,0,0,0-1,1v2a1,1,0,0,0,2,0v-2A1,1,0,0,0,51,10.5Z" style="fill:#8d6c9f;"/></svg>
