<?xml version="1.0" encoding="iso-8859-1"?>
<!-- Generator: Adobe Illustrator 19.1.1, SVG Export Plug-In . SVG Version: 6.00 Build 0)  -->
<svg version="1.1" id="Layer_1" xmlns="http://www.w3.org/2000/svg" xmlns:xlink="http://www.w3.org/1999/xlink" x="0px" y="0px"
	 viewBox="0 0 40 40" style="enable-background:new 0 0 40 40;" xml:space="preserve">
<g>
	<path style="fill:#B6C9D6;" d="M36.501,38.5c-0.534,0-1.035-0.208-1.413-0.585l-17.39-18.224l1.983-1.985l18.242,17.391
		c0.771,0.771,0.771,2.039-0.009,2.818C37.537,38.292,37.035,38.5,36.501,38.5z"/>
	<path style="fill:#788B9C;" d="M19.69,18.405l17.871,17.037c0.584,0.584,0.584,1.535,0,2.12C37.278,37.844,36.902,38,36.501,38
		c-0.4,0-0.777-0.156-1.044-0.422l-17.06-17.879L19.69,18.405 M19.673,17.007L17,19.683l17.734,18.585
		C35.222,38.756,35.862,39,36.501,39c0.639,0,1.279-0.244,1.767-0.732h0c0.976-0.976,0.976-2.558,0-3.534L19.673,17.007
		L19.673,17.007z"/>
</g>
<g>
	<path style="fill:#FFEEA3;" d="M14,26.5C7.107,26.5,1.5,20.893,1.5,14S7.107,1.5,14,1.5S26.5,7.107,26.5,14S20.893,26.5,14,26.5z"
		/>
	<g>
		<path style="fill:#788B9C;" d="M14,2c6.617,0,12,5.383,12,12s-5.383,12-12,12S2,20.617,2,14S7.383,2,14,2 M14,1
			C6.82,1,1,6.82,1,14s5.82,13,13,13s13-5.82,13-13S21.18,1,14,1L14,1z"/>
	</g>
</g>
<g>
	<path style="fill:#FFFFFF;" d="M14,21.5c-5.594,0-10.372-6.109-11.387-7.5C3.628,12.609,8.406,6.5,14,6.5s10.372,6.109,11.387,7.5
		C24.372,15.391,19.594,21.5,14,21.5z"/>
	<path style="fill:#BA9B48;" d="M14,7c5.034,0,9.438,5.252,10.764,7c-1.326,1.748-5.729,7-10.764,7s-9.438-5.252-10.764-7
		C4.562,12.252,8.966,7,14,7 M14,6C7.373,6,2,14,2,14s5.373,8,12,8s12-8,12-8S20.627,6,14,6L14,6z"/>
</g>
<g>
	<path style="fill:#8BB7F0;" d="M14,18.5c-2.481,0-4.5-2.019-4.5-4.5s2.019-4.5,4.5-4.5s4.5,2.019,4.5,4.5S16.481,18.5,14,18.5z"/>
	<path style="fill:#4E7AB5;" d="M14,10c2.206,0,4,1.794,4,4s-1.794,4-4,4s-4-1.794-4-4S11.794,10,14,10 M14,9c-2.761,0-5,2.239-5,5
		s2.239,5,5,5s5-2.239,5-5S16.761,9,14,9L14,9z"/>
</g>
<circle style="fill:#36404D;" cx="14" cy="14" r="2"/>
<circle style="fill:#FFFFFF;" cx="16" cy="11" r="2"/>
</svg>
