<?xml version="1.0" encoding="iso-8859-1"?>
<!-- Generator: Adobe Illustrator 19.1.1, SVG Export Plug-In . SVG Version: 6.00 Build 0)  -->
<svg version="1.1" id="Layer_1" xmlns="http://www.w3.org/2000/svg" xmlns:xlink="http://www.w3.org/1999/xlink" x="0px" y="0px"
	 viewBox="0 0 40 40" style="enable-background:new 0 0 40 40;" xml:space="preserve">
<g>
	<path style="fill:#F76D6D;" d="M16,31.362C13.794,29.599,0.5,18.726,0.5,12.75C0.5,8.201,4.313,4.5,9,4.5
		c2.611,0,5.075,1.267,6.594,3.389L16,8.457l0.406-0.568C17.948,5.735,20.351,4.5,23,4.5c4.687,0,8.5,3.701,8.5,8.25
		C31.5,18.728,18.206,29.599,16,31.362z"/>
	<g>
		<path style="fill:#C74343;" d="M23,5c4.411,0,8,3.477,8,7.75c0,4.95-10.298,14.217-15,17.976C11.298,26.967,1,17.7,1,12.75
			C1,8.477,4.589,5,9,5c2.45,0,4.762,1.188,6.187,3.179L16,9.316l0.813-1.137C18.259,6.159,20.514,5,23,5 M23,4
			c-2.9,0-5.4,1.361-7,3.597C14.4,5.361,11.8,4,9,4c-5,0-9,3.889-9,8.75C0,19.556,16,32,16,32s16-12.444,16-19.25
			C32,7.889,28,4,23,4L23,4z"/>
	</g>
</g>
<g>
	<path style="fill:#F7A3A3;" d="M23.36,35.378c-1.544-1.992-9.883-13.036-8.762-17.731c0.702-3.031,3.467-5.146,6.724-5.146
		c0.529,0,1.062,0.058,1.583,0.172c2.051,0.521,3.672,1.904,4.55,3.894l0.264,0.598l0.508-0.411
		c1.302-1.055,2.854-1.611,4.488-1.611c0.497,0,0.999,0.053,1.493,0.157c3.656,0.889,5.959,4.5,5.117,8.047
		C38.202,28.13,25.65,34.29,23.36,35.378z"/>
	<path style="fill:#C74343;" d="M21.323,13c0.493,0,0.99,0.054,1.444,0.153c1.915,0.486,3.417,1.769,4.231,3.614l0.528,1.197
		l1.017-0.824c1.212-0.982,2.655-1.5,4.175-1.5c0.462,0,0.929,0.049,1.359,0.14c3.405,0.828,5.542,4.169,4.762,7.452
		c-0.922,3.931-10.778,9.356-15.33,11.526c-3.056-3.955-9.344-13.14-8.422-17.002C15.735,14.955,18.299,13,21.323,13L21.323,13
		 M21.323,12c-3.381,0-6.438,2.192-7.21,5.53c-1.3,5.444,9.1,18.47,9.1,18.47s15.299-6.999,16.599-12.54
		c0.9-3.791-1.5-7.68-5.5-8.652c-0.534-0.113-1.068-0.168-1.596-0.168c-1.745,0-3.422,0.604-4.804,1.723
		c-0.9-2.041-2.6-3.597-4.9-4.18C22.446,12.06,21.88,12,21.323,12L21.323,12z"/>
</g>
</svg>
