<?xml version="1.0" encoding="iso-8859-1"?>
<!-- Generator: Adobe Illustrator 19.1.1, SVG Export Plug-In . SVG Version: 6.00 Build 0)  -->
<svg version="1.1" id="Layer_1" xmlns="http://www.w3.org/2000/svg" xmlns:xlink="http://www.w3.org/1999/xlink" x="0px" y="0px"
	 viewBox="0 0 40 40" style="enable-background:new 0 0 40 40;" xml:space="preserve">
<g>
	<path style="fill:#A59DD1;" d="M35.689,23.375c-1.632-0.552-7.356-2.702-11.666-6.995c-4.363-4.348-5.314-10.808-5.489-12.443
		c0.563-0.157,1.748-0.425,3.293-0.425c2.657,0,6.621,0.796,10.415,4.59C38.174,14.035,36.29,21.507,35.689,23.375z"/>
	<g>
		<path style="fill:#8B75A1;" d="M21.828,4.011L21.828,4.011c2.562,0,6.387,0.771,10.061,4.444
			c5.385,5.385,4.166,11.924,3.483,14.279c-2.039-0.734-7.1-2.828-10.994-6.709c-3.935-3.922-5.021-9.635-5.294-11.712
			C19.693,4.173,20.651,4.011,21.828,4.011 M21.828,3.011C19.52,3.011,18,3.58,18,3.58s0.465,7.967,5.671,13.154S36,24,36,24
			s3.722-9.125-3.404-16.252C28.725,3.877,24.676,3.011,21.828,3.011L21.828,3.011z"/>
	</g>
</g>
<g>
	<path style="fill:#DCD5F2;" d="M34.617,37.5c-3.546,0-10.994-5.155-18.977-13.133c-4.668-4.665-8.493-9.271-10.771-12.97
		C2.575,7.674,1.917,5.019,3.015,3.922C3.72,3.217,5.51,2.67,6.213,2.5c9.483,0.006,14.255,1.411,22.073,9.229
		c7.807,7.806,9.208,12.575,9.214,22.061c-0.164,0.701-0.697,2.492-1.401,3.197C35.753,37.332,35.268,37.5,34.617,37.5z"/>
	<path style="fill:#8B75A1;" d="M6.273,3c9.291,0.012,13.982,1.405,21.66,9.083c7.666,7.666,9.056,12.356,9.067,21.649
		c-0.186,0.772-0.691,2.337-1.255,2.901C35.497,36.88,35.128,37,34.617,37c-3.419,0-10.729-5.098-18.623-12.987
		c-4.641-4.638-8.44-9.212-10.699-12.879C3.197,7.73,2.477,5.166,3.368,4.276C3.911,3.732,5.39,3.22,6.273,3 M6.154,2
		c0,0-2.509,0.585-3.493,1.568c-2.725,2.723,3.27,11.802,12.626,21.152C23.104,32.533,30.73,38,34.617,38
		c0.766,0,1.387-0.212,1.835-0.66C37.439,36.353,38,33.846,38,33.846c0-9.692-1.522-14.632-9.36-22.471
		C20.671,3.406,15.788,2,6.154,2L6.154,2z"/>
</g>
<g>
	<path style="fill:#A59DD1;" d="M34.374,37.5c-4.538,0-12.467-4.88-19.73-12.144c-4.521-4.521-8.18-9.354-10.301-13.609
		C2.331,7.713,1.947,4.63,3.288,3.289C3.812,2.766,4.598,2.5,5.626,2.5c4.538,0,12.467,4.88,19.73,12.144
		c4.521,4.521,8.18,9.354,10.301,13.609c2.012,4.035,2.396,7.118,1.055,8.459C36.188,37.234,35.402,37.5,34.374,37.5z"/>
	<g>
		<path style="fill:#8B75A1;" d="M5.627,3L5.627,3c4.345,0,12.312,4.933,19.376,11.997c4.484,4.484,8.109,9.271,10.207,13.478
			c1.881,3.774,2.311,6.72,1.148,7.883C35.932,36.784,35.265,37,34.374,37c-4.345,0-12.313-4.933-19.377-11.997
			c-4.484-4.484-8.109-9.271-10.207-13.478C2.909,7.751,2.48,4.804,3.642,3.642C4.068,3.216,4.736,3,5.627,3 M5.626,2
			C4.487,2,3.568,2.301,2.935,2.935c-3.154,3.154,1.93,13.35,11.355,22.775C21.821,33.241,29.844,38,34.374,38
			c1.139,0,2.058-0.301,2.691-0.935c3.154-3.154-1.93-13.35-11.355-22.775C18.179,6.759,10.156,2,5.626,2L5.626,2z"/>
	</g>
</g>
<g>
	
		<ellipse transform="matrix(0.7071 -0.7071 0.7071 0.7071 -4.0772 21.1569)" style="fill:#FFEEA3;" cx="23.5" cy="15.5" rx="0.633" ry="2.024"/>
</g>
<g>
	
		<ellipse transform="matrix(0.7071 -0.7071 0.7071 0.7071 -12.0772 17.8431)" style="fill:#FFEEA3;" cx="15.5" cy="23.5" rx="0.633" ry="2.024"/>
</g>
<g>
	
		<ellipse transform="matrix(0.7071 -0.7071 0.7071 0.7071 -13.4092 32.5218)" style="fill:#FFEEA3;" cx="32.553" cy="32.447" rx="0.633" ry="2.024"/>
</g>
<g>
	
		<ellipse transform="matrix(0.7071 -0.7071 0.7071 0.7071 -3.1066 7.5)" style="fill:#FFEEA3;" cx="7.5" cy="7.5" rx="0.633" ry="2.024"/>
</g>
<g>
	
		<ellipse transform="matrix(0.7071 -0.7071 0.7071 0.7071 -1.7635 12.7426)" style="fill:#FFEEA3;" cx="14.5" cy="8.5" rx="0.633" ry="2.024"/>
</g>
<g>
	
		<ellipse transform="matrix(0.7071 -0.7071 0.7071 0.7071 -8.3909 28.7426)" style="fill:#FFEEA3;" cx="30.5" cy="24.5" rx="0.633" ry="2.024"/>
</g>
<g>
	
		<ellipse transform="matrix(0.7071 -0.7071 0.7071 0.7071 -7.7635 10.2574)" style="fill:#FFEEA3;" cx="8.5" cy="14.5" rx="0.633" ry="2.024"/>
</g>
<g>
	
		<ellipse transform="matrix(0.7071 -0.7071 0.7071 0.7071 -14.3909 26.2574)" style="fill:#FFEEA3;" cx="24.5" cy="30.5" rx="0.633" ry="2.024"/>
</g>
<g>
	<path style="fill:#839CB2;" d="M26.379,27.5c-1.92,0-5.444-2.183-8.57-5.309c-4.26-4.26-6.073-8.383-5.037-9.42
		c0.18-0.18,0.466-0.271,0.85-0.271c1.92,0,5.444,2.183,8.57,5.309c4.26,4.26,6.073,8.383,5.037,9.42
		C27.049,27.409,26.763,27.5,26.379,27.5z"/>
	<g>
		<path style="fill:#66798F;" d="M13.621,13L13.621,13c1.518,0,4.828,1.773,8.217,5.162c4.536,4.536,5.587,8.163,5.037,8.713
			C26.796,26.954,26.615,27,26.379,27c-1.518,0-4.828-1.773-8.217-5.162c-4.536-4.536-5.587-8.163-5.037-8.713
			C13.204,13.046,13.385,13,13.621,13 M13.621,12c-0.509,0-0.92,0.135-1.203,0.418c-1.406,1.406,0.85,5.94,5.037,10.127
			C20.798,25.889,24.363,28,26.379,28c0.509,0,0.92-0.135,1.203-0.418c1.406-1.406-0.85-5.94-5.037-10.127
			C19.202,14.111,15.637,12,13.621,12L13.621,12z"/>
	</g>
</g>
<g>
	<path style="fill:#FFEEA3;" d="M16,13.743V14c-0.227,1.267,1.248,3.954,3.647,6.353C22.048,22.753,24.734,24.23,26,24h0.257
		c-0.762-1.541-2.157-3.576-4.419-5.838C19.722,16.046,17.637,14.561,16,13.743z"/>
</g>
</svg>
