<?xml version="1.0" encoding="iso-8859-1"?>
<!-- Generator: Adobe Illustrator 19.2.1, SVG Export Plug-In . SVG Version: 6.00 Build 0)  -->
<svg version="1.1" id="Layer_1" xmlns="http://www.w3.org/2000/svg" xmlns:xlink="http://www.w3.org/1999/xlink" x="0px" y="0px"
	 viewBox="0 0 40 40" style="enable-background:new 0 0 40 40;" xml:space="preserve">
<polyline style="fill:none;stroke:#66798F;stroke-linecap:round;stroke-miterlimit:10;" points="9.5,4.5 17.286,9.143 27.5,1.5 "/>
<g>
	<circle style="fill:#B0C1D4;" cx="17" cy="11" r="3.5"/>
	<path style="fill:#66798F;" d="M17,8c1.654,0,3,1.346,3,3s-1.346,3-3,3s-3-1.346-3-3S15.346,8,17,8 M17,7c-2.209,0-4,1.791-4,4
		s1.791,4,4,4s4-1.791,4-4S19.209,7,17,7L17,7z"/>
</g>
<rect x="4" y="36" style="fill:#66798F;" width="3" height="2"/>
<rect x="33" y="36" style="fill:#66798F;" width="3" height="2"/>
<g>
	<g>
		<path style="fill:#D6AA70;" d="M3,36.5c-0.827,0-1.5-0.673-1.5-1.5V11c0-0.827,0.673-1.5,1.5-1.5h34c0.827,0,1.5,0.673,1.5,1.5v24
			c0,0.827-0.673,1.5-1.5,1.5H3z"/>
	</g>
	<g>
		<path style="fill:#8C6A3F;" d="M37,10c0.551,0,1,0.449,1,1v24c0,0.551-0.449,1-1,1H3c-0.551,0-1-0.449-1-1V11c0-0.551,0.449-1,1-1
			H37 M37,9H3c-1.105,0-2,0.895-2,2v24c0,1.105,0.895,2,2,2h34c1.105,0,2-0.895,2-2V11C39,9.895,38.105,9,37,9L37,9z"/>
	</g>
</g>
<g>
	<g>
		<path style="fill:#DBF2FF;" d="M9,32.5c-1.93,0-3.5-1.57-3.5-3.5V17c0-1.93,1.57-3.5,3.5-3.5h17c1.93,0,3.5,1.57,3.5,3.5v12
			c0,1.93-1.57,3.5-3.5,3.5H9z"/>
	</g>
	<g>
		<path style="fill:#7496C4;" d="M26,14c1.654,0,3,1.346,3,3v12c0,1.654-1.346,3-3,3H9c-1.654,0-3-1.346-3-3V17c0-1.654,1.346-3,3-3
			H26 M26,13H9c-2.209,0-4,1.791-4,4v12c0,2.209,1.791,4,4,4h17c2.209,0,4-1.791,4-4V17C30,14.791,28.209,13,26,13L26,13z"/>
	</g>
</g>
<g>
	<circle style="fill:#FFEEA3;" cx="34" cy="15" r="1"/>
</g>
<g>
	<circle style="fill:#FFEEA3;" cx="34" cy="19" r="1"/>
</g>
<g>
	<circle style="fill:#FFEEA3;" cx="34.5" cy="30.5" r="1.5"/>
</g>
</svg>
