<?xml version="1.0" encoding="iso-8859-1"?>
<!-- Generator: Adobe Illustrator 19.1.1, SVG Export Plug-In . SVG Version: 6.00 Build 0)  -->
<svg version="1.1" id="Layer_1" xmlns="http://www.w3.org/2000/svg" xmlns:xlink="http://www.w3.org/1999/xlink" x="0px" y="0px"
	 viewBox="0 0 40 40" style="enable-background:new 0 0 40 40;" xml:space="preserve">
<g>
	<path style="fill:#A59DD1;" d="M16,38.5c-1.93,0-3.5-1.57-3.5-3.5v-5h15v5c0,1.93-1.57,3.5-3.5,3.5H16z"/>
	<g>
		<path style="fill:#8B75A1;" d="M27,30.5V35c0,1.654-1.346,3-3,3h-8c-1.654,0-3-1.346-3-3v-4.5H27 M28,29.5H12V35c0,2.2,1.8,4,4,4
			h8c2.2,0,4-1.8,4-4V29.5L28,29.5z"/>
	</g>
</g>
<g>
	<path style="fill:#DCD5F2;" d="M14.5,33.5v-3H12c-1.378,0-2.5-1.122-2.5-2.5v-1.734l-0.22-0.148
		c-3.127-2.109-4.78-5.163-4.78-8.832C4.5,9.986,11.271,1.5,20,1.5s15.5,8.486,15.5,15.786c0,3.669-1.653,6.723-4.78,8.832
		l-0.22,0.148V28c0,1.378-1.122,2.5-2.5,2.5h-2.5v3H14.5z"/>
	<path style="fill:#8B75A1;" d="M20,2c8.448,0,15,8.217,15,15.286c0,3.495-1.577,6.406-4.559,8.417L30,26v0.532V28
		c0,1.103-0.897,2-2,2h-2h-1v1v2H15v-2v-1h-1h-2c-1.103,0-2-0.897-2-2v-1.468V26l-0.441-0.297C6.577,23.691,5,20.781,5,17.286
		C5,10.217,11.552,2,20,2 M20,1C11.153,1,4,9.401,4,17.286c0,4.074,1.933,7.178,5,9.246V28c0,1.65,1.35,3,3,3h2v3h12v-3h2
		c1.65,0,3-1.35,3-3v-1.468c3.067-2.068,5-5.172,5-9.246C36,9.401,28.847,1,20,1L20,1z"/>
</g>
<g>
	<circle style="fill:#839CB2;" cx="26.5" cy="21.5" r="3"/>
	<g>
		<path style="fill:#66798F;" d="M26.5,19c1.379,0,2.5,1.122,2.5,2.5S27.879,24,26.5,24S24,22.878,24,21.5S25.121,19,26.5,19
			 M26.5,18c-1.933,0-3.5,1.567-3.5,3.5c0,1.933,1.567,3.5,3.5,3.5c1.933,0,3.5-1.567,3.5-3.5C30,19.567,28.433,18,26.5,18L26.5,18z
			"/>
	</g>
</g>
<g>
	<circle style="fill:#839CB2;" cx="13.5" cy="21.5" r="3"/>
	<g>
		<path style="fill:#66798F;" d="M13.5,19c1.378,0,2.5,1.122,2.5,2.5S14.878,24,13.5,24S11,22.878,11,21.5S12.122,19,13.5,19
			 M13.5,18c-1.933,0-3.5,1.567-3.5,3.5c0,1.933,1.567,3.5,3.5,3.5s3.5-1.567,3.5-3.5C17,19.567,15.433,18,13.5,18L13.5,18z"/>
	</g>
</g>
<g>
	<path style="fill:#839CB2;" d="M21.5,29.5c-0.551,0-1-0.449-1-1h-1c0,0.551-0.449,1-1,1s-1-0.449-1-1
		c0-1.319,1.591-3.023,2.5-3.841c0.909,0.817,2.5,2.522,2.5,3.841C22.5,29.051,22.051,29.5,21.5,29.5z"/>
	<g>
		<path style="fill:#66798F;" d="M20,25.34c0.943,0.91,2,2.231,2,3.16c0,0.276-0.224,0.5-0.5,0.5S21,28.776,21,28.5h-2
			c0,0.276-0.224,0.5-0.5,0.5S18,28.776,18,28.5C18,27.571,19.057,26.25,20,25.34 M20,24c0,0-3,2.44-3,4.5
			c0,0.828,0.672,1.5,1.5,1.5s1.5-0.672,1.5-1.5c0,0.828,0.672,1.5,1.5,1.5s1.5-0.672,1.5-1.5C23,26.44,20,24,20,24L20,24z"/>
	</g>
</g>
<rect x="19" y="31" style="fill:#FFFFFF;" width="2" height="2"/>
<rect x="23" y="31" style="fill:#FFFFFF;" width="2" height="2"/>
<rect x="15" y="31" style="fill:#FFFFFF;" width="2" height="2"/>
<rect x="19" y="34" style="fill:#DCD5F2;" width="2" height="2"/>
<rect x="23" y="34" style="fill:#DCD5F2;" width="2" height="2"/>
<rect x="15" y="34" style="fill:#DCD5F2;" width="2" height="2"/>
</svg>
