<?xml version="1.0" encoding="iso-8859-1"?>
<!-- Generator: Adobe Illustrator 19.1.0, SVG Export Plug-In . SVG Version: 6.00 Build 0)  -->
<svg version="1.1"  xmlns="http://www.w3.org/2000/svg" xmlns:xlink="http://www.w3.org/1999/xlink" x="0px" y="0px"
	 viewBox="0 0 48 48" style="enable-background:new 0 0 48 48;" xml:space="preserve">
<polygon style="fill:#3949AB;" points="36.005,40 23.995,38 23.995,18 36.005,18 "/>
<polygon style="fill:#283593;" points="24.005,38 11.995,40 11.995,18 24.005,18 "/>
<path style="fill:#9FA8DA;" d="M41,39l-14,4V31l5.087-2.907C33.27,27.417,34,26.159,34,24.797v-0.001C34,22.699,32.3,21,30.203,21h0
	c-1.362,0-2.62,0.73-3.296,1.913L24,28V5c2.387,2.109,12.088,4.314,14.962,12.089C41.721,24.556,38,33,38,33L41,39z"/>
<path style="fill:#FFB300;" d="M26.907,22.913L24,28V3C24,3,27.583,21.73,26.907,22.913z"/>
<path style="fill:#C5CAE9;" d="M7,39l14,4V31l-5.087-2.907C14.73,27.417,14,26.159,14,24.797v-0.001C14,22.699,15.7,21,17.797,21h0
	c1.362,0,2.62,0.73,3.296,1.913L24,28V5C21.613,7.109,11.912,9.314,9.038,17.089C6.279,24.556,10,33,10,33L7,39z"/>
<path style="fill:#FFD54F;" d="M21.093,22.913L24,28V3C24,3,20.417,21.73,21.093,22.913z"/>
<circle style="fill:#7986CB;" cx="29" cy="17" r="1"/>
<circle style="fill:#7986CB;" cx="33" cy="17" r="1"/>
<circle style="fill:#7986CB;" cx="37" cy="17" r="1"/>
<circle style="fill:#9FA8DA;" cx="11" cy="17" r="1"/>
<circle style="fill:#9FA8DA;" cx="15" cy="17" r="1"/>
<circle style="fill:#9FA8DA;" cx="19" cy="17" r="1"/>
</svg>
