<?xml version="1.0" encoding="iso-8859-1"?>
<!-- Generator: Adobe Illustrator 19.1.1, SVG Export Plug-In . SVG Version: 6.00 Build 0)  -->
<svg version="1.1" id="Layer_1" xmlns="http://www.w3.org/2000/svg" xmlns:xlink="http://www.w3.org/1999/xlink" x="0px" y="0px"
	 viewBox="0 0 40 40" style="enable-background:new 0 0 40 40;" xml:space="preserve">
<g>
	<path style="fill:#99C99E;" d="M13.186,24.5c-3.979,0-6.35-0.744-6.688-4.544L6.5,13c0.117-2.107,0.808-2.449,1.536-2.501
		c0.916,0.034,1.001,0.335,1.243,1.754c0.046,0.268,0.096,0.559,0.159,0.873l1.07,5.667c0.313,1.054,0.788,1.722,2.131,1.722
		c0.123,0,0.256-0.006,0.398-0.017L18.5,20.5v4H13.186z"/>
	<path style="fill:#5E9C76;" d="M8.02,11.001c0.541,0.019,0.548,0.059,0.766,1.335c0.047,0.273,0.097,0.569,0.16,0.876l1.071,5.674
		l0.01,0.052l0.015,0.05c0.283,0.944,0.834,2.028,2.597,2.028c0.124,0,0.256-0.005,0.397-0.015H18v3h-4.814
		C9.338,24,7.32,23.373,7,19.955v-6.926C7.109,11.152,7.64,11.032,8.02,11.001 M8,10c-1.4,0.1-1.9,1.2-2,3c0,2.124,0,7,0,7
		c0.4,4.5,3.601,5,7.186,5H19v-5h-6c-0.129,0.01-0.249,0.015-0.361,0.015c-1.018,0-1.369-0.414-1.639-1.315l-1.071-5.674
		C9.539,11.104,9.68,10.057,8,10L8,10z"/>
</g>
<g>
	<path style="fill:#99C99E;" d="M21.5,21.5v-4H27c0.104,0.009,0.237,0.015,0.36,0.015c1.343,0,1.817-0.668,2.118-1.671l1.084-5.725
		c0.063-0.308,0.112-0.599,0.158-0.867c0.242-1.418,0.327-1.72,1.296-1.753c0.676,0.051,1.366,0.394,1.484,2.528L33.5,17
		c-0.336,3.756-2.706,4.5-6.686,4.5H21.5z"/>
	<path style="fill:#5E9C76;" d="M31.98,8.001c0.38,0.031,0.911,0.151,1.02,2.027v6.926C32.68,20.373,30.662,21,26.814,21H22v-3
		h4.963c0.141,0.01,0.273,0.015,0.397,0.015c1.763,0,2.314-1.084,2.597-2.028l0.015-0.05l0.01-0.052l1.069-5.66
		c0.065-0.32,0.116-0.617,0.162-0.889C31.432,8.06,31.439,8.021,31.98,8.001 M32,7c-1.68,0.057-1.539,1.104-1.929,3.027L29,15.7
		c-0.27,0.901-0.622,1.315-1.639,1.315c-0.112,0-0.232-0.005-0.361-0.015h-6v5h5.814c3.584,0,6.786-0.5,7.186-5c0,0,0-4.876,0-7
		C33.9,8.2,33.4,7.1,32,7L32,7z"/>
</g>
<g>
	<path style="fill:#BAE0BD;" d="M16.441,37.5C15.834,32.542,15.504,25.374,15.5,21c-0.007-9.282,0.844-16.716,0.853-16.791
		C16.759,1.948,17.998,1.5,20,1.5c2.051,0,2.979,0.107,3.47,2.648C23.476,4.195,24.486,11.726,24.5,21
		c0.003,2.385-0.055,10.491-0.931,16.5H16.441z"/>
	<path style="fill:#5E9C76;" d="M20,2c2.008,0,2.557,0.088,2.973,2.215C23.04,4.716,23.987,12.034,24,21.001
		c0.003,2.319-0.052,10.07-0.865,15.999h-6.25C16.313,32.081,16.003,25.227,16,20.999c-0.007-8.942,0.785-16.169,0.845-16.702
		C17.169,2.538,17.911,2,20,2 M20,1c-2.21,0-3.684,0.591-4.145,3.151c0,0-0.862,7.43-0.855,16.849c0.003,4.654,0.36,12.05,1,17h8
		c0.778-5.025,1.007-12.191,1-17C24.986,11.58,23.96,4.053,23.96,4.053C23.408,1.197,22.21,1,20,1L20,1z"/>
</g>
<g>
	<path style="fill:#FFEEA3;" d="M7.379,38.5c2.339-0.858,6.585-2,12.621-2s10.282,1.142,12.621,2H7.379z"/>
	<path style="fill:#F5C276;" d="M20,37c3.785,0,6.854,0.454,9.177,1H10.823C13.146,37.454,16.215,37,20,37 M20,36c-9.9,0-15,3-15,3
		h30C35,39,29.9,36,20,36L20,36z"/>
</g>
</svg>
