<?xml version="1.0" encoding="iso-8859-1"?>
<!-- Generator: Adobe Illustrator 19.1.1, SVG Export Plug-In . SVG Version: 6.00 Build 0)  -->
<svg version="1.1" id="Layer_1" xmlns="http://www.w3.org/2000/svg" xmlns:xlink="http://www.w3.org/1999/xlink" x="0px" y="0px"
	 viewBox="0 0 40 40" style="enable-background:new 0 0 40 40;" xml:space="preserve">
<path style="fill:#FFEEA3;" d="M30.656,23.206c-0.462-0.977-1.244-1.525-2.096-1.776c-0.283-0.137-0.685-0.117-1.125-0.044
	c0.902-1.325,1.014-3.398-0.159-4.571c-0.676-0.676-1.57-1.003-2.461-0.99c1.012-1.334,0.925-3.25-0.291-4.465
	c-1.567-1.567-3.379-0.965-4.712,0.025c-0.005-0.867-0.335-1.733-0.992-2.39c-1.326-1.326-3.495-1.326-4.821,0L13,10H4
	c-1.65,0-3,1.35-3,3v12.256c0,0.251,0.032,0.483,0.084,0.701c0.055,1.687,0.751,3.183,2.081,4.513l7.249,6.538
	c1.388,1.389,3.227,2.053,5.046,1.993c1.669-0.055,3.322-0.719,4.596-1.993l0.773-0.773l0.015,0.015l9.037-9.038
	C30.932,26.161,31.292,24.55,30.656,23.206z"/>
<polygon style="fill:#F5C276;" points="6,11 6,17 12,11 "/>
<path style="fill:none;stroke:#F75252;stroke-miterlimit:10;" d="M13.656,4.912l1.364-1.364c1.242-1.31,2.825-2.045,4.772-2.045
	c1.759,0,3.346,0.684,4.555,1.778c0.711-0.252,1.465-0.414,2.262-0.414c3.481,0,6.32,2.618,6.734,5.987
	c2.452,1.033,4.174,3.457,4.174,6.285c0,1.248-0.36,2.402-0.946,3.409c0.586,1.006,0.946,2.161,0.946,3.409
	c0,1.904-0.781,3.626-2.04,4.863l-1.369,1.273"/>
<g>
	<polygon style="fill:#BA9B48;" points="14,10.413 14,8.994 13,10 6,17 6,18.414 13.709,10.705 	"/>
</g>
<path style="fill:#BA9B48;" d="M30.656,23.206c-0.462-0.977-1.244-1.525-2.096-1.776c-0.15-0.073-0.333-0.101-0.537-0.101
	c-0.182,0-0.381,0.023-0.588,0.057c0.902-1.325,1.014-3.398-0.159-4.571c-0.663-0.663-1.536-0.99-2.409-0.99
	c-0.017,0-0.034,0-0.051,0c1.012-1.333,0.925-3.25-0.291-4.465c-0.691-0.691-1.43-0.96-2.154-0.96c-0.918,0-1.813,0.432-2.557,0.986
	c-0.005-0.867-0.335-1.733-0.992-2.39C18.158,8.331,17.284,8,16.41,8C15.537,8,14.663,8.331,14,8.994L13,10H4c-1.65,0-3,1.35-3,3
	v12.256c0,0.251,0.032,0.483,0.084,0.701c0.055,1.687,0.751,3.183,2.081,4.513l7.249,6.538c1.331,1.331,3.076,1.997,4.821,1.997
	c0.075,0,0.15-0.001,0.225-0.004c1.669-0.055,3.322-0.719,4.596-1.993l0.773-0.773l0.015,0.015l9.037-9.038
	C30.932,26.161,31.292,24.55,30.656,23.206z M29.174,26.505l-8.33,8.331l-0.015-0.015l-0.707,0.707l-0.773,0.773
	c-1.048,1.048-2.441,1.652-3.921,1.701c-0.064,0.002-0.128,0.003-0.192,0.003c-1.554,0-3.015-0.605-4.114-1.704l-0.018-0.018
	l-0.019-0.017l-7.229-6.521c-1.145-1.152-1.725-2.402-1.771-3.821L2.08,25.823l-0.023-0.098C2.018,25.566,2,25.413,2,25.256V13
	c0-1.103,0.897-2,2-2h9h0.416l0.293-0.295l0.998-1.004C15.159,9.249,15.764,9,16.41,9s1.251,0.249,1.703,0.701
	c0.447,0.447,0.696,1.047,0.7,1.689c0,0-0.094,0.922-0.782,1.609l-2.03,2.063l0.707,0.707l3.24-3.24l0.461-0.343
	c0.484-0.36,1.217-0.788,1.961-0.788c0.525,0,0.998,0.218,1.447,0.667c0.841,0.841,0.927,2.196,0.201,3.153l-0.36,0.489l-3.46,3.46
	l0.707,0.707l2.424-2.424c0.894-0.685,1.536-0.627,1.536-0.627c0.648,0,1.253,0.248,1.702,0.697c0.814,0.814,0.678,2.364,0.04,3.302
	l-0.751,1.103l-1.419,1.419l0.707,0.707l1.193-1.193c0.503-0.45,1.26-0.486,1.26-0.486c0.177-0.029,0.316-0.044,0.425-0.044
	c0.06,0,0.096,0.005,0.105,0.005c0.002,0,0.003,0,0.002-0.001l0.069,0.033l0.079,0.023c0.683,0.201,1.179,0.62,1.474,1.245
	C30.193,24.564,29.96,25.718,29.174,26.505z"/>
</svg>
